{"asset":{"version":"2.0","generator":"Blockbench 5.0.4 glTF exporter"},"scenes":[{"nodes":[1],"name":"blockbench_export"}],"scene":0,"nodes":[{"name":"D -col","mesh":0},{"name":"group","children":[0]}],"bufferViews":[{"buffer":0,"byteOffset":0,"byteLength":1392,"target":34962,"byteStride":12},{"buffer":0,"byteOffset":1392,"byteLength":1392,"target":34962,"byteStride":12},{"buffer":0,"byteOffset":2784,"byteLength":928,"target":34962,"byteStride":8},{"buffer":0,"byteOffset":3712,"byteLength":336,"target":34963},{"buffer":0,"byteOffset":4048,"byteLength":16},{"buffer":0,"byteOffset":4064,"byteLength":64}],"buffers":[{"byteLength":4128,"uri":"data:application/octet-stream;base64,"}],"accessors":[{"bufferView":0,"componentType":5126,"count":116,"max":[0.0625,0.5625,0.0625],"min":[-0.3125,0,-0.0625],"type":"VEC3"},{"bufferView":1,"componentType":5126,"count":116,"max":[1,1,1],"min":[-1,-1,-1],"type":"VEC3"},{"bufferView":2,"componentType":5126,"count":116,"max":[0.25,0.3125],"min":[0,0],"type":"VEC2"},{"bufferView":3,"componentType":5123,"count":168,"max":[115],"min":[0],"type":"SCALAR"},{"bufferView":4,"componentType":5126,"count":4,"max":[2],"min":[0],"type":"SCALAR"},{"bufferView":5,"componentType":5126,"count":4,"max":[0,0.8660253882408142,0,1],"min":[0,0,0,-1],"type":"VEC4"}],"materials":[{"pbrMetallicRoughness":{"metallicFactor":0,"roughnessFactor":1},"alphaMode":"MASK","alphaCutoff":0.05,"doubleSided":true}],"meshes":[{"primitives":[{"mode":4,"attributes":{"POSITION":0,"NORMAL":1,"TEXCOORD_0":2},"indices":3,"material":0}]}],"animations":[{"name":"Rotation","samplers":[{"input":4,"output":5,"interpolation":"LINEAR"}],"channels":[{"sampler":0,"target":{"node":1,"path":"rotation"}}]}]}