{"asset":{"version":"2.0","generator":"Blockbench 5.0.3 glTF exporter"},"scenes":[{"nodes":[25],"name":"blockbench_export"}],"scene":0,"nodes":[{"translation":[0,-0.0625,-0.0625],"name":"testa","mesh":0},{"translation":[0,-0.0625,-0.0625],"name":"capelli","mesh":1},{"translation":[0,1.5,0],"name":"Testa5","children":[0,1]},{"translation":[-0.25,-0.5,0],"name":"spallaccio_left","mesh":2},{"translation":[0.0625,0,0],"name":"braccio_left","mesh":3},{"translation":[0.0625,0,0],"name":"manica_left","mesh":4},{"translation":[-0.4375,1.5,0],"name":"braccio_left5","children":[3,4,5]},{"translation":[0.25,-0.5,0],"name":"spallaccio_right","mesh":5},{"translation":[-0.0625,0,0],"name":"braccio_right","mesh":6},{"translation":[-0.0625,0,0],"name":"manica_right","mesh":7},{"translation":[0.4375,1.5,0],"name":"braccio_right5","children":[7,8,9]},{"rotation":[0,0,0.40274668985873724,0.9153114791194471],"translation":[-0.5625,-0.0625,0],"name":"coprifianchi_left","mesh":8},{"rotation":[-0.0033731248392050977,0.005597115180515546,0.499820315457021,0.8661044663243108],"translation":[-0.4375,-0.3125,0],"name":"coprifianchi_left","mesh":9},{"translation":[-0.0625,0,0],"name":"gamba_left","mesh":10},{"translation":[-0.0625,0,0],"name":"pantalone_left","mesh":11},{"translation":[-0.1875,-0.0625,0],"name":"Gamba_left5","children":[11,12,13,14]},{"rotation":[0,0,-0.40274668985873724,0.9153114791194471],"translation":[0.5,-0.0625,0],"name":"coprifianchi_right","mesh":12},{"rotation":[-0.0033731248392050977,-0.005597115180515546,-0.499820315457021,0.8661044663243108],"translation":[0.375,-0.3125,0],"name":"coprifianchi_right","mesh":13},{"name":"gamba_right","mesh":14},{"name":"pantalone_right","mesh":15},{"translation":[0.25,-0.0625,0],"name":"Gamba_right5","children":[16,17,18,19]},{"translation":[0,0.25,0],"name":"corazza","mesh":16},{"name":"torso","mesh":17},{"name":"vestito","mesh":18},{"translation":[0,1.625,0],"name":"Torso_base5","children":[2,6,10,15,20,21,22,23]},{"name":"Puppettina_base4","children":[24]}],"bufferViews":[{"buffer":0,"byteOffset":0,"byteLength":288,"target":34962,"byteStride":12},{"buffer":0,"byteOffset":288,"byteLength":288,"target":34962,"byteStride":12},{"buffer":0,"byteOffset":576,"byteLength":192,"target":34962,"byteStride":8},{"buffer":0,"byteOffset":768,"byteLength":72,"target":34963},{"buffer":0,"byteOffset":840,"byteLength":240,"target":34962,"byteStride":12},{"buffer":0,"byteOffset":1080,"byteLength":240,"target":34962,"byteStride":12},{"buffer":0,"byteOffset":1320,"byteLength":160,"target":34962,"byteStride":8},{"buffer":0,"byteOffset":1480,"byteLength":60,"target":34963},{"buffer":0,"byteOffset":1540,"byteLength":1344,"target":34962,"byteStride":12},{"buffer":0,"byteOffset":2884,"byteLength":1344,"target":34962,"byteStride":12},{"buffer":0,"byteOffset":4228,"byteLength":896,"target":34962,"byteStride":8},{"buffer":0,"byteOffset":5124,"byteLength":336,"target":34963},{"buffer":0,"byteOffset":5460,"byteLength":528,"target":34962,"byteStride":12},{"buffer":0,"byteOffset":5988,"byteLength":528,"target":34962,"byteStride":12},{"buffer":0,"byteOffset":6516,"byteLength":352,"target":34962,"byteStride":8},{"buffer":0,"byteOffset":6868,"byteLength":132,"target":34963},{"buffer":0,"byteOffset":7000,"byteLength":288,"target":34962,"byteStride":12},{"buffer":0,"byteOffset":7288,"byteLength":288,"target":34962,"byteStride":12},{"buffer":0,"byteOffset":7576,"byteLength":192,"target":34962,"byteStride":8},{"buffer":0,"byteOffset":7768,"byteLength":72,"target":34963},{"buffer":0,"byteOffset":7840,"byteLength":1344,"target":34962,"byteStride":12},{"buffer":0,"byteOffset":9184,"byteLength":1344,"target":34962,"byteStride":12},{"buffer":0,"byteOffset":10528,"byteLength":896,"target":34962,"byteStride":8},{"buffer":0,"byteOffset":11424,"byteLength":336,"target":34963},{"buffer":0,"byteOffset":11760,"byteLength":288,"target":34962,"byteStride":12},{"buffer":0,"byteOffset":12048,"byteLength":288,"target":34962,"byteStride":12},{"buffer":0,"byteOffset":12336,"byteLength":192,"target":34962,"byteStride":8},{"buffer":0,"byteOffset":12528,"byteLength":72,"target":34963},{"buffer":0,"byteOffset":12600,"byteLength":288,"target":34962,"byteStride":12},{"buffer":0,"byteOffset":12888,"byteLength":288,"target":34962,"byteStride":12},{"buffer":0,"byteOffset":13176,"byteLength":192,"target":34962,"byteStride":8},{"buffer":0,"byteOffset":13368,"byteLength":72,"target":34963},{"buffer":0,"byteOffset":13440,"byteLength":1248,"target":34962,"byteStride":12},{"buffer":0,"byteOffset":14688,"byteLength":1248,"target":34962,"byteStride":12},{"buffer":0,"byteOffset":15936,"byteLength":832,"target":34962,"byteStride":8},{"buffer":0,"byteOffset":16768,"byteLength":288,"target":34963},{"buffer":0,"byteOffset":17056,"byteLength":1248,"target":34962,"byteStride":12},{"buffer":0,"byteOffset":18304,"byteLength":1248,"target":34962,"byteStride":12},{"buffer":0,"byteOffset":19552,"byteLength":832,"target":34962,"byteStride":8},{"buffer":0,"byteOffset":20384,"byteLength":288,"target":34963},{"buffer":0,"byteOffset":20672,"byteLength":288,"target":34962,"byteStride":12},{"buffer":0,"byteOffset":20960,"byteLength":288,"target":34962,"byteStride":12},{"buffer":0,"byteOffset":21248,"byteLength":192,"target":34962,"byteStride":8},{"buffer":0,"byteOffset":21440,"byteLength":72,"target":34963},{"buffer":0,"byteOffset":21512,"byteLength":288,"target":34962,"byteStride":12},{"buffer":0,"byteOffset":21800,"byteLength":288,"target":34962,"byteStride":12},{"buffer":0,"byteOffset":22088,"byteLength":192,"target":34962,"byteStride":8},{"buffer":0,"byteOffset":22280,"byteLength":72,"target":34963},{"buffer":0,"byteOffset":22352,"byteLength":1248,"target":34962,"byteStride":12},{"buffer":0,"byteOffset":23600,"byteLength":1248,"target":34962,"byteStride":12},{"buffer":0,"byteOffset":24848,"byteLength":832,"target":34962,"byteStride":8},{"buffer":0,"byteOffset":25680,"byteLength":288,"target":34963},{"buffer":0,"byteOffset":25968,"byteLength":1248,"target":34962,"byteStride":12},{"buffer":0,"byteOffset":27216,"byteLength":1248,"target":34962,"byteStride":12},{"buffer":0,"byteOffset":28464,"byteLength":832,"target":34962,"byteStride":8},{"buffer":0,"byteOffset":29296,"byteLength":288,"target":34963},{"buffer":0,"byteOffset":29584,"byteLength":288,"target":34962,"byteStride":12},{"buffer":0,"byteOffset":29872,"byteLength":288,"target":34962,"byteStride":12},{"buffer":0,"byteOffset":30160,"byteLength":192,"target":34962,"byteStride":8},{"buffer":0,"byteOffset":30352,"byteLength":72,"target":34963},{"buffer":0,"byteOffset":30424,"byteLength":288,"target":34962,"byteStride":12},{"buffer":0,"byteOffset":30712,"byteLength":288,"target":34962,"byteStride":12},{"buffer":0,"byteOffset":31000,"byteLength":192,"target":34962,"byteStride":8},{"buffer":0,"byteOffset":31192,"byteLength":72,"target":34963},{"buffer":0,"byteOffset":31264,"byteLength":1824,"target":34962,"byteStride":12},{"buffer":0,"byteOffset":33088,"byteLength":1824,"target":34962,"byteStride":12},{"buffer":0,"byteOffset":34912,"byteLength":1216,"target":34962,"byteStride":8},{"buffer":0,"byteOffset":36128,"byteLength":456,"target":34963},{"buffer":0,"byteOffset":36584,"byteLength":864,"target":34962,"byteStride":12},{"buffer":0,"byteOffset":37448,"byteLength":864,"target":34962,"byteStride":12},{"buffer":0,"byteOffset":38312,"byteLength":576,"target":34962,"byteStride":8},{"buffer":0,"byteOffset":38888,"byteLength":216,"target":34963},{"buffer":0,"byteOffset":39104,"byteLength":864,"target":34962,"byteStride":12},{"buffer":0,"byteOffset":39968,"byteLength":864,"target":34962,"byteStride":12},{"buffer":0,"byteOffset":40832,"byteLength":576,"target":34962,"byteStride":8},{"buffer":0,"byteOffset":41408,"byteLength":216,"target":34963},{"buffer":0,"byteOffset":41624,"byteLength":16},{"buffer":0,"byteOffset":41640,"byteLength":64},{"buffer":0,"byteOffset":41704,"byteLength":12},{"buffer":0,"byteOffset":41716,"byteLength":48},{"buffer":0,"byteOffset":41764,"byteLength":36},{"buffer":0,"byteOffset":41800,"byteLength":144},{"buffer":0,"byteOffset":41944,"byteLength":20},{"buffer":0,"byteOffset":41964,"byteLength":80},{"buffer":0,"byteOffset":42044,"byteLength":24},{"buffer":0,"byteOffset":42068,"byteLength":96}],"buffers":[{"byteLength":42164,"uri":"data:application/octet-stream;base64,"}],"accessors":[{"bufferView":0,"componentType":5126,"count":24,"max":[0.4375,0.9375,0.5],"min":[-0.4375,0.0625,-0.375],"type":"VEC3"},{"bufferView":1,"componentType":5126,"count":24,"max":[1,1,1],"min":[-1,-1,-1],"type":"VEC3"},{"bufferView":2,"componentType":5126,"count":24,"max":[0.25,0.125],"min":[0,0],"type":"VEC2"},{"bufferView":3,"componentType":5123,"count":36,"max":[23],"min":[0],"type":"SCALAR"},{"bufferView":4,"componentType":5126,"count":20,"max":[0.46875,0.96875,0.53125],"min":[-0.46875,-0.46875,-0.40625],"type":"VEC3"},{"bufferView":5,"componentType":5126,"count":20,"max":[1,1,1],"min":[-1,0,-1],"type":"VEC3"},{"bufferView":6,"componentType":5126,"count":20,"max":[0.25,0.28515625],"min":[0,0.125],"type":"VEC2"},{"bufferView":7,"componentType":5123,"count":30,"max":[19],"min":[0],"type":"SCALAR"},{"bufferView":8,"componentType":5126,"count":112,"max":[0.2952987551689148,0.625,0.35854312777519226],"min":[-0.4147118628025055,-0.013891874812543392,-0.3575456142425537],"type":"VEC3"},{"bufferView":9,"componentType":5126,"count":112,"max":[0.9999985098838806,0.9990220665931702,0.9958367347717285],"min":[-0.9217647910118103,-0.9961946606636047,-0.9950010776519775],"type":"VEC3"},{"bufferView":10,"componentType":5126,"count":112,"max":[0.08560648560523987,0.09375],"min":[0,0],"type":"VEC2"},{"bufferView":11,"componentType":5123,"count":168,"max":[111],"min":[0],"type":"SCALAR"},{"bufferView":12,"componentType":5126,"count":44,"max":[-0.0625,0,0.1875],"min":[-0.4375,-1.5,-0.1875],"type":"VEC3"},{"bufferView":13,"componentType":5126,"count":44,"max":[1,1,1],"min":[-1,-1,-1],"type":"VEC3"},{"bufferView":14,"componentType":5126,"count":44,"max":[0.44921875,0.41015625],"min":[0,0],"type":"VEC2"},{"bufferView":15,"componentType":5123,"count":66,"max":[43],"min":[0],"type":"SCALAR"},{"bufferView":16,"componentType":5126,"count":24,"max":[-0.03125,0.03125,0.21875],"min":[-0.46875,-1.53125,-0.21875],"type":"VEC3"},{"bufferView":17,"componentType":5126,"count":24,"max":[1,1,1],"min":[-1,-1,-1],"type":"VEC3"},{"bufferView":18,"componentType":5126,"count":24,"max":[0.70703125,0.41015625],"min":[0.578125,0.28515625],"type":"VEC2"},{"bufferView":19,"componentType":5123,"count":36,"max":[23],"min":[0],"type":"SCALAR"},{"bufferView":20,"componentType":5126,"count":112,"max":[0.4147118628025055,0.625,0.35854312777519226],"min":[-0.2952987551689148,-0.013891874812543392,-0.3575456142425537],"type":"VEC3"},{"bufferView":21,"componentType":5126,"count":112,"max":[0.9217647910118103,0.9990220665931702,0.9958367347717285],"min":[-0.9999985098838806,-0.9961946606636047,-0.9950010776519775],"type":"VEC3"},{"bufferView":22,"componentType":5126,"count":112,"max":[0.609375,0.6015625],"min":[0.003054375061765313,0.1484375],"type":"VEC2"},{"bufferView":23,"componentType":5123,"count":168,"max":[111],"min":[0],"type":"SCALAR"},{"bufferView":24,"componentType":5126,"count":24,"max":[0.4375,0,0.1875],"min":[0.0625,-1.5,-0.1875],"type":"VEC3"},{"bufferView":25,"componentType":5126,"count":24,"max":[1,1,1],"min":[-1,-1,-1],"type":"VEC3"},{"bufferView":26,"componentType":5126,"count":24,"max":[0.3203125,0.41015625],"min":[0.19140625,0.28515625],"type":"VEC2"},{"bufferView":27,"componentType":5123,"count":36,"max":[23],"min":[0],"type":"SCALAR"},{"bufferView":28,"componentType":5126,"count":24,"max":[0.46875,0.03125,0.21875],"min":[0.03125,-1.53125,-0.21875],"type":"VEC3"},{"bufferView":29,"componentType":5126,"count":24,"max":[1,1,1],"min":[-1,-1,-1],"type":"VEC3"},{"bufferView":30,"componentType":5126,"count":24,"max":[0.578125,0.41015625],"min":[0.44921875,0.28515625],"type":"VEC2"},{"bufferView":31,"componentType":5123,"count":36,"max":[23],"min":[0],"type":"SCALAR"},{"bufferView":32,"componentType":5126,"count":104,"max":[0.7297243475914001,0.10355312377214432,0.5],"min":[-0.6771175265312195,-0.327412486076355,-0.3125],"type":"VEC3"},{"bufferView":33,"componentType":5126,"count":104,"max":[0.9961002469062805,0.9976668357849121,0.9950108528137207],"min":[-0.9345967769622803,-0.9948092699050903,-1],"type":"VEC3"},{"bufferView":34,"componentType":5126,"count":104,"max":[0.07835937291383743,0.04783594608306885],"min":[0,0],"type":"VEC2"},{"bufferView":35,"componentType":5123,"count":144,"max":[103],"min":[0],"type":"SCALAR"},{"bufferView":36,"componentType":5126,"count":104,"max":[0.7297243475914001,0.10355312377214432,0.5],"min":[-0.6771175265312195,-0.327412486076355,-0.3125],"type":"VEC3"},{"bufferView":37,"componentType":5126,"count":104,"max":[0.9961002469062805,0.9976668357849121,0.9950108528137207],"min":[-0.9345967769622803,-0.9948092699050903,-1],"type":"VEC3"},{"bufferView":38,"componentType":5126,"count":104,"max":[0.07835937291383743,0.04783594608306885],"min":[0,0],"type":"VEC2"},{"bufferView":39,"componentType":5123,"count":144,"max":[103],"min":[0],"type":"SCALAR"},{"bufferView":40,"componentType":5126,"count":24,"max":[0.25,0.0625,0.3125],"min":[-0.25,-1.5625,-0.25],"type":"VEC3"},{"bufferView":41,"componentType":5126,"count":24,"max":[1,1,0.9970544576644897],"min":[-0.9970544576644897,-1,-0.999261200428009],"type":"VEC3"},{"bufferView":42,"componentType":5126,"count":24,"max":[0.44921875,0.53515625],"min":[0.3203125,0.41015625],"type":"VEC2"},{"bufferView":43,"componentType":5123,"count":36,"max":[23],"min":[0],"type":"SCALAR"},{"bufferView":44,"componentType":5126,"count":24,"max":[0.28125,0.09375,0.28125],"min":[-0.28125,-1.59375,-0.28125],"type":"VEC3"},{"bufferView":45,"componentType":5126,"count":24,"max":[1,1,0.9993148446083069],"min":[-0.9972677826881409,-1,-0.9993148446083069],"type":"VEC3"},{"bufferView":46,"componentType":5126,"count":24,"max":[0.70703125,0.53515625],"min":[0.578125,0.41015625],"type":"VEC2"},{"bufferView":47,"componentType":5123,"count":36,"max":[23],"min":[0],"type":"SCALAR"},{"bufferView":48,"componentType":5126,"count":104,"max":[0.6771175265312195,0.10355312377214432,0.5],"min":[-0.7297243475914001,-0.327412486076355,-0.3125],"type":"VEC3"},{"bufferView":49,"componentType":5126,"count":104,"max":[0.9345967769622803,0.9976668357849121,0.9950108528137207],"min":[-0.9961002469062805,-0.9948092699050903,-1],"type":"VEC3"},{"bufferView":50,"componentType":5126,"count":104,"max":[0.6015625,0.5527949929237366],"min":[0,0],"type":"VEC2"},{"bufferView":51,"componentType":5123,"count":144,"max":[103],"min":[0],"type":"SCALAR"},{"bufferView":52,"componentType":5126,"count":104,"max":[0.6771175265312195,0.10355312377214432,0.5],"min":[-0.7297243475914001,-0.327412486076355,-0.3125],"type":"VEC3"},{"bufferView":53,"componentType":5126,"count":104,"max":[0.9345967769622803,0.9976668357849121,0.9950108528137207],"min":[-0.9961002469062805,-0.9948092699050903,-1],"type":"VEC3"},{"bufferView":54,"componentType":5126,"count":104,"max":[0.6015625,0.5840449929237366],"min":[0,0.015625],"type":"VEC2"},{"bufferView":55,"componentType":5123,"count":144,"max":[103],"min":[0],"type":"SCALAR"},{"bufferView":56,"componentType":5126,"count":24,"max":[0.25,0.0625,0.3125],"min":[-0.25,-1.5625,-0.25],"type":"VEC3"},{"bufferView":57,"componentType":5126,"count":24,"max":[0.9970544576644897,1,0.9970544576644897],"min":[-1,-1,-0.999261200428009],"type":"VEC3"},{"bufferView":58,"componentType":5126,"count":24,"max":[0.3203125,0.53515625],"min":[0.19140625,0.41015625],"type":"VEC2"},{"bufferView":59,"componentType":5123,"count":36,"max":[23],"min":[0],"type":"SCALAR"},{"bufferView":60,"componentType":5126,"count":24,"max":[0.28125,0.09375,0.28125],"min":[-0.28125,-1.59375,-0.28125],"type":"VEC3"},{"bufferView":61,"componentType":5126,"count":24,"max":[0.9972677826881409,1,0.9993148446083069],"min":[-1,-1,-0.9993148446083069],"type":"VEC3"},{"bufferView":62,"componentType":5126,"count":24,"max":[0.578125,0.53515625],"min":[0.44921875,0.41015625],"type":"VEC2"},{"bufferView":63,"componentType":5123,"count":36,"max":[23],"min":[0],"type":"SCALAR"},{"bufferView":64,"componentType":5126,"count":152,"max":[0.515663743019104,1.3125,0.390663743019104],"min":[-0.515663743019104,-0.0625,-0.453163743019104],"type":"VEC3"},{"bufferView":65,"componentType":5126,"count":152,"max":[0.9962001442909241,1,0.9989785552024841],"min":[-0.9962001442909241,-1,-0.9989785552024841],"type":"VEC3"},{"bufferView":66,"componentType":5126,"count":152,"max":[0.5390625,0.578125],"min":[0.007885156199336052,0],"type":"VEC2"},{"bufferView":67,"componentType":5123,"count":228,"max":[151],"min":[0],"type":"SCALAR"},{"bufferView":68,"componentType":5126,"count":72,"max":[0.5,1.5,0.3125],"min":[-0.5,0,-0.375],"type":"VEC3"},{"bufferView":69,"componentType":5126,"count":72,"max":[0.9912280440330505,1,1],"min":[-0.9912280440330505,-1,-1],"type":"VEC3"},{"bufferView":70,"componentType":5126,"count":72,"max":[0.19140625,0.41015625],"min":[0,0.28515625],"type":"VEC2"},{"bufferView":71,"componentType":5123,"count":108,"max":[71],"min":[0],"type":"SCALAR"},{"bufferView":72,"componentType":5126,"count":72,"max":[0.53125,1.53125,0.34375],"min":[-0.53125,-0.03125,-0.46875],"type":"VEC3"},{"bufferView":73,"componentType":5126,"count":72,"max":[1,1,1],"min":[-1,-1,-1],"type":"VEC3"},{"bufferView":74,"componentType":5126,"count":72,"max":[0.19140625,0.53515625],"min":[0,0.41015625],"type":"VEC2"},{"bufferView":75,"componentType":5123,"count":108,"max":[71],"min":[0],"type":"SCALAR"},{"bufferView":76,"componentType":5126,"count":4,"max":[1],"min":[0],"type":"SCALAR"},{"bufferView":77,"componentType":5126,"count":4,"max":[0.29375702142715454,0.1667182445526123,-0.004132651723921299,0.9424919486045837],"min":[0.2754162549972534,0.15100356936454773,-0.13407796621322632,0.9398760199546814],"type":"VEC4"},{"bufferView":78,"componentType":5126,"count":3,"max":[1],"min":[0],"type":"SCALAR"},{"bufferView":79,"componentType":5126,"count":3,"max":[0,0,0.06540312618017197,0.9997619986534119],"min":[0,0,-0.02181488461792469,0.9978589415550232],"type":"VEC4"},{"bufferView":80,"componentType":5126,"count":9,"max":[1],"min":[0],"type":"SCALAR"},{"bufferView":81,"componentType":5126,"count":9,"max":[0.8462511301040649,0.2552512586116791,-0.4672691524028778,0.39027854800224304],"min":[0.751125156879425,-0.07045476138591766,-0.5324403643608093,-0.129409521818161],"type":"VEC4"},{"bufferView":82,"componentType":5126,"count":5,"max":[1],"min":[0],"type":"SCALAR"},{"bufferView":83,"componentType":5126,"count":5,"max":[0,0,0,1],"min":[0,0,-0.08967655897140503,0.9959709644317627],"type":"VEC4"},{"bufferView":84,"componentType":5126,"count":6,"max":[1],"min":[0],"type":"SCALAR"},{"bufferView":85,"componentType":5126,"count":6,"max":[0,0,0.02181488461792469,1],"min":[0,0,-0.04361938685178757,0.9990482330322266],"type":"VEC4"}],"materials":[{"pbrMetallicRoughness":{"metallicFactor":0,"roughnessFactor":1,"baseColorTexture":{"index":0}},"alphaMode":"MASK","alphaCutoff":0.05,"doubleSided":true},{"pbrMetallicRoughness":{"metallicFactor":0,"roughnessFactor":1,"baseColorTexture":{"index":1}},"alphaMode":"MASK","alphaCutoff":0.05,"doubleSided":true}],"textures":[{"sampler":0,"source":0,"name":"puppettinov3.png"},{"sampler":1,"source":1,"name":"Armatura.png"}],"samplers":[{"magFilter":9728,"minFilter":9728,"wrapS":33071,"wrapT":33071},{"magFilter":9728,"minFilter":9728,"wrapS":33071,"wrapT":33071}],"images":[{"mimeType":"image/png","uri":"data:image/png;base64,"},{"mimeType":"image/png","uri":"data:image/png;base64,"}],"meshes":[{"primitives":[{"mode":4,"attributes":{"POSITION":0,"NORMAL":1,"TEXCOORD_0":2},"indices":3,"material":0}]},{"primitives":[{"mode":4,"attributes":{"POSITION":4,"NORMAL":5,"TEXCOORD_0":6},"indices":7,"material":0}]},{"primitives":[{"mode":4,"attributes":{"POSITION":8,"NORMAL":9,"TEXCOORD_0":10},"indices":11,"material":1}]},{"primitives":[{"mode":4,"attributes":{"POSITION":12,"NORMAL":13,"TEXCOORD_0":14},"indices":15,"material":0}]},{"primitives":[{"mode":4,"attributes":{"POSITION":16,"NORMAL":17,"TEXCOORD_0":18},"indices":19,"material":0}]},{"primitives":[{"mode":4,"attributes":{"POSITION":20,"NORMAL":21,"TEXCOORD_0":22},"indices":23,"material":1}]},{"primitives":[{"mode":4,"attributes":{"POSITION":24,"NORMAL":25,"TEXCOORD_0":26},"indices":27,"material":0}]},{"primitives":[{"mode":4,"attributes":{"POSITION":28,"NORMAL":29,"TEXCOORD_0":30},"indices":31,"material":0}]},{"primitives":[{"mode":4,"attributes":{"POSITION":32,"NORMAL":33,"TEXCOORD_0":34},"indices":35,"material":1}]},{"primitives":[{"mode":4,"attributes":{"POSITION":36,"NORMAL":37,"TEXCOORD_0":38},"indices":39,"material":1}]},{"primitives":[{"mode":4,"attributes":{"POSITION":40,"NORMAL":41,"TEXCOORD_0":42},"indices":43,"material":0}]},{"primitives":[{"mode":4,"attributes":{"POSITION":44,"NORMAL":45,"TEXCOORD_0":46},"indices":47,"material":0}]},{"primitives":[{"mode":4,"attributes":{"POSITION":48,"NORMAL":49,"TEXCOORD_0":50},"indices":51,"material":1}]},{"primitives":[{"mode":4,"attributes":{"POSITION":52,"NORMAL":53,"TEXCOORD_0":54},"indices":55,"material":1}]},{"primitives":[{"mode":4,"attributes":{"POSITION":56,"NORMAL":57,"TEXCOORD_0":58},"indices":59,"material":0}]},{"primitives":[{"mode":4,"attributes":{"POSITION":60,"NORMAL":61,"TEXCOORD_0":62},"indices":63,"material":0}]},{"primitives":[{"mode":4,"attributes":{"POSITION":64,"NORMAL":65,"TEXCOORD_0":66},"indices":67,"material":1}]},{"primitives":[{"mode":4,"attributes":{"POSITION":68,"NORMAL":69,"TEXCOORD_0":70},"indices":71,"material":0}]},{"primitives":[{"mode":4,"attributes":{"POSITION":72,"NORMAL":73,"TEXCOORD_0":74},"indices":75,"material":0}]}],"animations":[{"name":"animation.saluta","samplers":[{"input":76,"output":77,"interpolation":"LINEAR"},{"input":78,"output":79,"interpolation":"LINEAR"},{"input":80,"output":81,"interpolation":"LINEAR"},{"input":82,"output":83,"interpolation":"LINEAR"},{"input":84,"output":85,"interpolation":"LINEAR"}],"channels":[{"sampler":0,"target":{"node":2,"path":"rotation"}},{"sampler":1,"target":{"node":24,"path":"rotation"}},{"sampler":2,"target":{"node":6,"path":"rotation"}},{"sampler":3,"target":{"node":15,"path":"rotation"}},{"sampler":4,"target":{"node":20,"path":"rotation"}}]}]}