{"asset":{"version":"2.0","generator":"Blockbench 4.12.6 glTF exporter"},"scenes":[{"nodes":[12],"name":"blockbench_export"}],"scene":0,"nodes":[{"translation":[-0.625,0.6875,-0.125],"name":"mirror_left","mesh":0},{"translation":[0.625,0.6875,-0.125],"name":"mirror_right","mesh":1},{"translation":[0,0.3125,0],"name":"body","mesh":2},{"rotation":[0,0,0.7071067811865475,0.7071067811865476],"translation":[0,-1.1102230246251565e-16,0],"name":"cylinder","mesh":3},{"translation":[-0.49632352941176466,0.2500000000000001,-0.5],"name":"wheel_left_front","children":[3]},{"rotation":[0,0,-0.7071067811865475,0.7071067811865476],"translation":[0,-1.1102230246251565e-16,0],"name":"cylinder","mesh":4},{"translation":[0.49632352941176466,0.2500000000000001,-0.5],"name":"wheel_right_front","children":[5]},{"rotation":[0,0,0.7071067811865475,0.7071067811865476],"translation":[0,-1.1102230246251565e-16,0],"name":"cylinder","mesh":5},{"translation":[-0.49632352941176466,0.2500000000000001,0.8125],"name":"wheel_left_rear","children":[7]},{"rotation":[0,0,-0.7071067811865475,0.7071067811865476],"translation":[0,-1.1102230246251565e-16,0],"name":"cylinder","mesh":6},{"translation":[0.49632352941176466,0.2500000000000001,0.8125],"name":"wheel_right_rear","children":[9]},{"name":"root","children":[0,1,2,4,6,8,10]},{"children":[11]}],"bufferViews":[{"buffer":0,"byteOffset":0,"byteLength":996,"target":34962,"byteStride":12},{"buffer":0,"byteOffset":996,"byteLength":996,"target":34962,"byteStride":12},{"buffer":0,"byteOffset":1992,"byteLength":664,"target":34962,"byteStride":8},{"buffer":0,"byteOffset":2656,"byteLength":248,"target":34963},{"buffer":0,"byteOffset":2904,"byteLength":996,"target":34962,"byteStride":12},{"buffer":0,"byteOffset":3900,"byteLength":996,"target":34962,"byteStride":12},{"buffer":0,"byteOffset":4896,"byteLength":664,"target":34962,"byteStride":8},{"buffer":0,"byteOffset":5560,"byteLength":248,"target":34963},{"buffer":0,"byteOffset":5808,"byteLength":3936,"target":34962,"byteStride":12},{"buffer":0,"byteOffset":9744,"byteLength":3936,"target":34962,"byteStride":12},{"buffer":0,"byteOffset":13680,"byteLength":2624,"target":34962,"byteStride":8},{"buffer":0,"byteOffset":16304,"byteLength":984,"target":34963},{"buffer":0,"byteOffset":17288,"byteLength":1728,"target":34962,"byteStride":12},{"buffer":0,"byteOffset":19016,"byteLength":1728,"target":34962,"byteStride":12},{"buffer":0,"byteOffset":20744,"byteLength":1152,"target":34962,"byteStride":8},{"buffer":0,"byteOffset":21896,"byteLength":384,"target":34963},{"buffer":0,"byteOffset":22280,"byteLength":1728,"target":34962,"byteStride":12},{"buffer":0,"byteOffset":24008,"byteLength":1728,"target":34962,"byteStride":12},{"buffer":0,"byteOffset":25736,"byteLength":1152,"target":34962,"byteStride":8},{"buffer":0,"byteOffset":26888,"byteLength":384,"target":34963},{"buffer":0,"byteOffset":27272,"byteLength":1728,"target":34962,"byteStride":12},{"buffer":0,"byteOffset":29000,"byteLength":1728,"target":34962,"byteStride":12},{"buffer":0,"byteOffset":30728,"byteLength":1152,"target":34962,"byteStride":8},{"buffer":0,"byteOffset":31880,"byteLength":384,"target":34963},{"buffer":0,"byteOffset":32264,"byteLength":1728,"target":34962,"byteStride":12},{"buffer":0,"byteOffset":33992,"byteLength":1728,"target":34962,"byteStride":12},{"buffer":0,"byteOffset":35720,"byteLength":1152,"target":34962,"byteStride":8},{"buffer":0,"byteOffset":36872,"byteLength":384,"target":34963},{"buffer":0,"byteOffset":37256,"byteLength":4},{"buffer":0,"byteOffset":37260,"byteLength":16},{"buffer":0,"byteOffset":37276,"byteLength":4},{"buffer":0,"byteOffset":37280,"byteLength":12},{"buffer":0,"byteOffset":37292,"byteLength":4},{"buffer":0,"byteOffset":37296,"byteLength":12},{"buffer":0,"byteOffset":37308,"byteLength":16},{"buffer":0,"byteOffset":37324,"byteLength":64},{"buffer":0,"byteOffset":37388,"byteLength":16},{"buffer":0,"byteOffset":37404,"byteLength":64},{"buffer":0,"byteOffset":37468,"byteLength":16},{"buffer":0,"byteOffset":37484,"byteLength":64},{"buffer":0,"byteOffset":37548,"byteLength":16},{"buffer":0,"byteOffset":37564,"byteLength":64}],"buffers":[{"byteLength":37628,"uri":"data:application/octet-stream;base64,"}],"accessors":[{"bufferView":0,"componentType":5126,"count":83,"max":[0.15625,0.1875,-0.09375],"min":[-0.09375,0.0625,-0.21875],"type":"VEC3"},{"bufferView":1,"componentType":5126,"count":83,"max":[1,1,1],"min":[-1,-1,-1],"type":"VEC3"},{"bufferView":2,"componentType":5126,"count":83,"max":[0.5546875,0.453125],"min":[0,0],"type":"VEC2"},{"bufferView":3,"componentType":5123,"count":123,"max":[82],"min":[0],"type":"SCALAR"},{"bufferView":4,"componentType":5126,"count":83,"max":[0.09375,0.1875,-0.09375],"min":[-0.15625,0.0625,-0.21875],"type":"VEC3"},{"bufferView":5,"componentType":5126,"count":83,"max":[1,1,1],"min":[-1,-1,-1],"type":"VEC3"},{"bufferView":6,"componentType":5126,"count":83,"max":[0.5706359148025513,0.5703125],"min":[0,0],"type":"VEC2"},{"bufferView":7,"componentType":5123,"count":123,"max":[82],"min":[0],"type":"SCALAR"},{"bufferView":8,"componentType":5126,"count":328,"max":[0.5,0.875,1.375],"min":[-0.5,0,-1.0625],"type":"VEC3"},{"bufferView":9,"componentType":5126,"count":328,"max":[1,1,1],"min":[-1,-1,-1],"type":"VEC3"},{"bufferView":10,"componentType":5126,"count":328,"max":[0.59375,0.5703125],"min":[0,0],"type":"VEC2"},{"bufferView":11,"componentType":5123,"count":492,"max":[327],"min":[0],"type":"SCALAR"},{"bufferView":12,"componentType":5126,"count":144,"max":[0.25,0.06617647409439087,0.25],"min":[-0.25,-0.12132352590560913,-0.25],"type":"VEC3"},{"bufferView":13,"componentType":5126,"count":144,"max":[1,1,1],"min":[-1,-1,-1],"type":"VEC3"},{"bufferView":14,"componentType":5126,"count":144,"max":[0.4609375,0.546875],"min":[0,0.0390625],"type":"VEC2"},{"bufferView":15,"componentType":5123,"count":192,"max":[143],"min":[0],"type":"SCALAR"},{"bufferView":16,"componentType":5126,"count":144,"max":[0.25,0.06617647409439087,0.25],"min":[-0.25,-0.12132352590560913,-0.25],"type":"VEC3"},{"bufferView":17,"componentType":5126,"count":144,"max":[1,1,1],"min":[-1,-1,-1],"type":"VEC3"},{"bufferView":18,"componentType":5126,"count":144,"max":[0.5390625,0.5625],"min":[0.140625,0.0390625],"type":"VEC2"},{"bufferView":19,"componentType":5123,"count":192,"max":[143],"min":[0],"type":"SCALAR"},{"bufferView":20,"componentType":5126,"count":144,"max":[0.25,0.06617647409439087,0.25],"min":[-0.25,-0.12132352590560913,-0.25],"type":"VEC3"},{"bufferView":21,"componentType":5126,"count":144,"max":[1,1,1],"min":[-1,-1,-1],"type":"VEC3"},{"bufferView":22,"componentType":5126,"count":144,"max":[0.4609375,0.546875],"min":[0,0.0390625],"type":"VEC2"},{"bufferView":23,"componentType":5123,"count":192,"max":[143],"min":[0],"type":"SCALAR"},{"bufferView":24,"componentType":5126,"count":144,"max":[0.25,0.06617647409439087,0.25],"min":[-0.25,-0.12132352590560913,-0.25],"type":"VEC3"},{"bufferView":25,"componentType":5126,"count":144,"max":[1,1,1],"min":[-1,-1,-1],"type":"VEC3"},{"bufferView":26,"componentType":5126,"count":144,"max":[0.5390625,0.5625],"min":[0.140625,0.0390625],"type":"VEC2"},{"bufferView":27,"componentType":5123,"count":192,"max":[143],"min":[0],"type":"SCALAR"},{"bufferView":28,"componentType":5126,"count":1,"max":[0],"min":[0],"type":"SCALAR"},{"bufferView":29,"componentType":5126,"count":1,"max":[0,0,0,1],"min":[0,0,0,1],"type":"VEC4"},{"bufferView":30,"componentType":5126,"count":1,"max":[0],"min":[0],"type":"SCALAR"},{"bufferView":31,"componentType":5126,"count":1,"max":[0,0,0],"min":[0,0,0],"type":"VEC3"},{"bufferView":32,"componentType":5126,"count":1,"max":[0],"min":[0],"type":"SCALAR"},{"bufferView":33,"componentType":5126,"count":1,"max":[1,1,1],"min":[1,1,1],"type":"VEC3"},{"bufferView":34,"componentType":5126,"count":4,"max":[1],"min":[0],"type":"SCALAR"},{"bufferView":35,"componentType":5126,"count":4,"max":[0,0,0,1],"min":[-0.8660253882408142,0,0,-1],"type":"VEC4"},{"bufferView":36,"componentType":5126,"count":4,"max":[1],"min":[0],"type":"SCALAR"},{"bufferView":37,"componentType":5126,"count":4,"max":[0,0,0,1],"min":[-0.8660253882408142,0,0,-1],"type":"VEC4"},{"bufferView":38,"componentType":5126,"count":4,"max":[1],"min":[0],"type":"SCALAR"},{"bufferView":39,"componentType":5126,"count":4,"max":[0,0,0,1],"min":[-0.8660253882408142,0,0,-1],"type":"VEC4"},{"bufferView":40,"componentType":5126,"count":4,"max":[1],"min":[0],"type":"SCALAR"},{"bufferView":41,"componentType":5126,"count":4,"max":[0,0,0,1],"min":[-0.8660253882408142,0,0,-1],"type":"VEC4"}],"materials":[{"pbrMetallicRoughness":{"metallicFactor":0,"roughnessFactor":1,"baseColorTexture":{"index":0}},"alphaMode":"MASK","alphaCutoff":0.05,"doubleSided":true}],"textures":[{"sampler":0,"source":0,"name":"truck"}],"samplers":[{"magFilter":9728,"minFilter":9728,"wrapS":33071,"wrapT":33071}],"images":[{"mimeType":"image/png","uri":"data:image/png;base64,"}],"meshes":[{"primitives":[{"mode":4,"attributes":{"POSITION":0,"NORMAL":1,"TEXCOORD_0":2},"indices":3,"material":0}]},{"primitives":[{"mode":4,"attributes":{"POSITION":4,"NORMAL":5,"TEXCOORD_0":6},"indices":7,"material":0}]},{"primitives":[{"mode":4,"attributes":{"POSITION":8,"NORMAL":9,"TEXCOORD_0":10},"indices":11,"material":0}]},{"primitives":[{"mode":4,"attributes":{"POSITION":12,"NORMAL":13,"TEXCOORD_0":14},"indices":15,"material":0}]},{"primitives":[{"mode":4,"attributes":{"POSITION":16,"NORMAL":17,"TEXCOORD_0":18},"indices":19,"material":0}]},{"primitives":[{"mode":4,"attributes":{"POSITION":20,"NORMAL":21,"TEXCOORD_0":22},"indices":23,"material":0}]},{"primitives":[{"mode":4,"attributes":{"POSITION":24,"NORMAL":25,"TEXCOORD_0":26},"indices":27,"material":0}]}],"animations":[{"name":"animation.stop","samplers":[{"input":28,"output":29,"interpolation":"LINEAR"},{"input":30,"output":31,"interpolation":"LINEAR"},{"input":32,"output":33,"interpolation":"LINEAR"}],"channels":[{"sampler":0,"target":{"node":11,"path":"rotation"}},{"sampler":1,"target":{"node":11,"path":"translation"}},{"sampler":2,"target":{"node":11,"path":"scale"}}]},{"name":"animation.go","samplers":[{"input":34,"output":35,"interpolation":"LINEAR"},{"input":36,"output":37,"interpolation":"LINEAR"},{"input":38,"output":39,"interpolation":"LINEAR"},{"input":40,"output":41,"interpolation":"LINEAR"}],"channels":[{"sampler":0,"target":{"node":4,"path":"rotation"}},{"sampler":1,"target":{"node":6,"path":"rotation"}},{"sampler":2,"target":{"node":8,"path":"rotation"}},{"sampler":3,"target":{"node":10,"path":"rotation"}}]}]}