{"asset":{"version":"2.0","generator":"Blockbench 5.0.4 glTF exporter"},"scenes":[{"nodes":[0,6,7],"name":"blockbench_export"}],"scene":0,"nodes":[{"name":"Stanza"},{"translation":[0.5,0,0.1875],"name":"cuboid","mesh":0},{"translation":[0.5,0,-0.5],"name":"cuboid","mesh":1},{"translation":[-0.5,0,0.1875],"name":"cuboid","mesh":2},{"translation":[0.5,0,-0.5],"name":"cuboid","mesh":3},{"translation":[-0.5,0,-0.5],"name":"cuboid","mesh":4},{"name":"Oggetti","children":[1,2,3,4,5]},{"name":"walls","mesh":5}],"bufferViews":[{"buffer":0,"byteOffset":0,"byteLength":816,"target":34962,"byteStride":12},{"buffer":0,"byteOffset":816,"byteLength":816,"target":34962,"byteStride":12},{"buffer":0,"byteOffset":1632,"byteLength":544,"target":34962,"byteStride":8},{"buffer":0,"byteOffset":2176,"byteLength":204,"target":34963},{"buffer":0,"byteOffset":2380,"byteLength":816,"target":34962,"byteStride":12},{"buffer":0,"byteOffset":3196,"byteLength":816,"target":34962,"byteStride":12},{"buffer":0,"byteOffset":4012,"byteLength":544,"target":34962,"byteStride":8},{"buffer":0,"byteOffset":4556,"byteLength":204,"target":34963},{"buffer":0,"byteOffset":4760,"byteLength":816,"target":34962,"byteStride":12},{"buffer":0,"byteOffset":5576,"byteLength":816,"target":34962,"byteStride":12},{"buffer":0,"byteOffset":6392,"byteLength":544,"target":34962,"byteStride":8},{"buffer":0,"byteOffset":6936,"byteLength":204,"target":34963},{"buffer":0,"byteOffset":7140,"byteLength":816,"target":34962,"byteStride":12},{"buffer":0,"byteOffset":7956,"byteLength":816,"target":34962,"byteStride":12},{"buffer":0,"byteOffset":8772,"byteLength":544,"target":34962,"byteStride":8},{"buffer":0,"byteOffset":9316,"byteLength":204,"target":34963},{"buffer":0,"byteOffset":9520,"byteLength":816,"target":34962,"byteStride":12},{"buffer":0,"byteOffset":10336,"byteLength":816,"target":34962,"byteStride":12},{"buffer":0,"byteOffset":11152,"byteLength":544,"target":34962,"byteStride":8},{"buffer":0,"byteOffset":11696,"byteLength":204,"target":34963},{"buffer":0,"byteOffset":11900,"byteLength":2016,"target":34962,"byteStride":12},{"buffer":0,"byteOffset":13916,"byteLength":2016,"target":34962,"byteStride":12},{"buffer":0,"byteOffset":15932,"byteLength":1344,"target":34962,"byteStride":8},{"buffer":0,"byteOffset":17276,"byteLength":504,"target":34963}],"buffers":[{"byteLength":17780,"uri":"data:application/octet-stream;base64,"}],"accessors":[{"bufferView":0,"componentType":5126,"count":68,"max":[0.0625,1.1180918216705322,0.0625],"min":[-0.5026387572288513,0,-0.0625],"type":"VEC3"},{"bufferView":1,"componentType":5126,"count":68,"max":[1,0.9967545866966248,1],"min":[-1,-1,-1],"type":"VEC3"},{"bufferView":2,"componentType":5126,"count":68,"max":[0.015625,0.0625],"min":[0,0],"type":"VEC2"},{"bufferView":3,"componentType":5123,"count":102,"max":[67],"min":[0],"type":"SCALAR"},{"bufferView":4,"componentType":5126,"count":68,"max":[0.0625,1.1180918216705322,0.0625],"min":[-0.4963887631893158,0,-0.0625],"type":"VEC3"},{"bufferView":5,"componentType":5126,"count":68,"max":[1,0.9964858293533325,1],"min":[-1,-1,-1],"type":"VEC3"},{"bufferView":6,"componentType":5126,"count":68,"max":[0.015625,0.0625],"min":[0,0],"type":"VEC2"},{"bufferView":7,"componentType":5123,"count":102,"max":[67],"min":[0],"type":"SCALAR"},{"bufferView":8,"componentType":5126,"count":68,"max":[0.5026387572288513,1.1180918216705322,0.0625],"min":[-0.0625,0,-0.0625],"type":"VEC3"},{"bufferView":9,"componentType":5126,"count":68,"max":[1,0.9967545866966248,1],"min":[-1,-1,-1],"type":"VEC3"},{"bufferView":10,"componentType":5126,"count":68,"max":[0.015625,0.0625],"min":[0,0],"type":"VEC2"},{"bufferView":11,"componentType":5123,"count":102,"max":[67],"min":[0],"type":"SCALAR"},{"bufferView":12,"componentType":5126,"count":68,"max":[0.0625,1.1180918216705322,0.0625],"min":[-0.4963887631893158,0,-0.0625],"type":"VEC3"},{"bufferView":13,"componentType":5126,"count":68,"max":[1,0.9964858293533325,1],"min":[-1,-1,-1],"type":"VEC3"},{"bufferView":14,"componentType":5126,"count":68,"max":[0.015625,0.0625],"min":[0,0],"type":"VEC2"},{"bufferView":15,"componentType":5123,"count":102,"max":[67],"min":[0],"type":"SCALAR"},{"bufferView":16,"componentType":5126,"count":68,"max":[0.4963887631893158,1.1180918216705322,0.0625],"min":[-0.0625,0,-0.0625],"type":"VEC3"},{"bufferView":17,"componentType":5126,"count":68,"max":[1,0.9964858293533325,1],"min":[-1,-1,-1],"type":"VEC3"},{"bufferView":18,"componentType":5126,"count":68,"max":[0.015625,0.0625],"min":[0,0],"type":"VEC2"},{"bufferView":19,"componentType":5123,"count":102,"max":[67],"min":[0],"type":"SCALAR"},{"bufferView":20,"componentType":5126,"count":168,"max":[1.3125,0.75,4],"min":[-1.3125,0,-1.6875],"type":"VEC3"},{"bufferView":21,"componentType":5126,"count":168,"max":[1,1,1],"min":[-1,-1,-1],"type":"VEC3"},{"bufferView":22,"componentType":5126,"count":168,"max":[0.671875,0.6796875],"min":[0,0],"type":"VEC2"},{"bufferView":23,"componentType":5123,"count":252,"max":[167],"min":[0],"type":"SCALAR"}],"materials":[{"pbrMetallicRoughness":{"metallicFactor":0,"roughnessFactor":1},"alphaMode":"MASK","alphaCutoff":0.05,"doubleSided":true},{"pbrMetallicRoughness":{"metallicFactor":0,"roughnessFactor":1,"baseColorTexture":{"index":0}},"alphaMode":"MASK","alphaCutoff":0.05,"doubleSided":true}],"meshes":[{"primitives":[{"mode":4,"attributes":{"POSITION":0,"NORMAL":1,"TEXCOORD_0":2},"indices":3,"material":0}]},{"primitives":[{"mode":4,"attributes":{"POSITION":4,"NORMAL":5,"TEXCOORD_0":6},"indices":7,"material":0}]},{"primitives":[{"mode":4,"attributes":{"POSITION":8,"NORMAL":9,"TEXCOORD_0":10},"indices":11,"material":0}]},{"primitives":[{"mode":4,"attributes":{"POSITION":12,"NORMAL":13,"TEXCOORD_0":14},"indices":15,"material":0}]},{"primitives":[{"mode":4,"attributes":{"POSITION":16,"NORMAL":17,"TEXCOORD_0":18},"indices":19,"material":0}]},{"primitives":[{"mode":4,"attributes":{"POSITION":20,"NORMAL":21,"TEXCOORD_0":22},"indices":23,"material":1}]}],"textures":[{"sampler":0,"source":0,"name":"texture"}],"samplers":[{"magFilter":9728,"minFilter":9728,"wrapS":10497,"wrapT":10497}],"images":[{"mimeType":"image/png","uri":"data:image/png;base64,"}]}