{"asset":{"version":"2.0","generator":"Blockbench 5.0.7 glTF exporter"},"scenes":[{"nodes":[0,1,2,3,4,5,6],"name":"blockbench_export"}],"scene":0,"nodes":[{"translation":[0,0.5,0],"name":"cylinder","mesh":0},{"translation":[-1.125,0,-3.625],"name":"cylinder","mesh":1},{"rotation":[0,0,-0.7071067811865475,0.7071067811865476],"translation":[-0.0625,1.3125,0],"name":"cylinder","mesh":2},{"rotation":[0.5183725995217026,0.38008651545621525,-0.45296947029155893,0.6177724077823882],"translation":[0.5,0.375,0.6875],"name":"cylinder","mesh":3},{"rotation":[0,0,-0.7223639620597555,0.6915130557822694],"translation":[-0.0625,1.125,0],"name":"cylinder","mesh":4},{"rotation":[0.4880220191020217,0.4671794489248835,-0.5098369041365819,0.5325825781550256],"translation":[-0.0625,0.9375,0],"name":"cylinder","mesh":5},{"name":"cylinder","mesh":6}],"bufferViews":[{"buffer":0,"byteOffset":0,"byteLength":1440,"target":34962,"byteStride":12},{"buffer":0,"byteOffset":1440,"byteLength":1440,"target":34962,"byteStride":12},{"buffer":0,"byteOffset":2880,"byteLength":960,"target":34962,"byteStride":8},{"buffer":0,"byteOffset":3840,"byteLength":288,"target":34963},{"buffer":0,"byteOffset":4128,"byteLength":1440,"target":34962,"byteStride":12},{"buffer":0,"byteOffset":5568,"byteLength":1440,"target":34962,"byteStride":12},{"buffer":0,"byteOffset":7008,"byteLength":960,"target":34962,"byteStride":8},{"buffer":0,"byteOffset":7968,"byteLength":288,"target":34963},{"buffer":0,"byteOffset":8256,"byteLength":1440,"target":34962,"byteStride":12},{"buffer":0,"byteOffset":9696,"byteLength":1440,"target":34962,"byteStride":12},{"buffer":0,"byteOffset":11136,"byteLength":960,"target":34962,"byteStride":8},{"buffer":0,"byteOffset":12096,"byteLength":288,"target":34963},{"buffer":0,"byteOffset":12384,"byteLength":1440,"target":34962,"byteStride":12},{"buffer":0,"byteOffset":13824,"byteLength":1440,"target":34962,"byteStride":12},{"buffer":0,"byteOffset":15264,"byteLength":960,"target":34962,"byteStride":8},{"buffer":0,"byteOffset":16224,"byteLength":288,"target":34963},{"buffer":0,"byteOffset":16512,"byteLength":1440,"target":34962,"byteStride":12},{"buffer":0,"byteOffset":17952,"byteLength":1440,"target":34962,"byteStride":12},{"buffer":0,"byteOffset":19392,"byteLength":960,"target":34962,"byteStride":8},{"buffer":0,"byteOffset":20352,"byteLength":288,"target":34963},{"buffer":0,"byteOffset":20640,"byteLength":1440,"target":34962,"byteStride":12},{"buffer":0,"byteOffset":22080,"byteLength":1440,"target":34962,"byteStride":12},{"buffer":0,"byteOffset":23520,"byteLength":960,"target":34962,"byteStride":8},{"buffer":0,"byteOffset":24480,"byteLength":288,"target":34963},{"buffer":0,"byteOffset":24768,"byteLength":1440,"target":34962,"byteStride":12},{"buffer":0,"byteOffset":26208,"byteLength":1440,"target":34962,"byteStride":12},{"buffer":0,"byteOffset":27648,"byteLength":960,"target":34962,"byteStride":8},{"buffer":0,"byteOffset":28608,"byteLength":288,"target":34963}],"buffers":[{"byteLength":28896,"uri":"data:application/octet-stream;base64,"}],"accessors":[{"bufferView":0,"componentType":5126,"count":120,"max":[0.0625,1,0.0625],"min":[-0.0625,-0.5,-0.0625],"type":"VEC3"},{"bufferView":1,"componentType":5126,"count":120,"max":[1,1,1],"min":[-1,-1,-1],"type":"VEC3"},{"bufferView":2,"componentType":5126,"count":120,"max":[0.2938078045845032,0.828125],"min":[0,0.25],"type":"VEC2"},{"bufferView":3,"componentType":5123,"count":144,"max":[119],"min":[0],"type":"SCALAR"},{"bufferView":4,"componentType":5126,"count":120,"max":[-2.7755575615628914e-17,0.375,-2.7755575615628914e-17],"min":[-2.7755575615628914e-17,0.125,-2.7755575615628914e-17],"type":"VEC3"},{"bufferView":5,"componentType":5126,"count":120,"max":[1,0,0],"min":[1,0,0],"type":"VEC3"},{"bufferView":6,"componentType":5126,"count":120,"max":[0.00004999999873689376,0.000050008296966552734],"min":[0,0],"type":"VEC2"},{"bufferView":7,"componentType":5123,"count":144,"max":[119],"min":[0],"type":"SCALAR"},{"bufferView":8,"componentType":5126,"count":120,"max":[0.0625,0.375,0.0625],"min":[-0.0625,0.125,-0.0625],"type":"VEC3"},{"bufferView":9,"componentType":5126,"count":120,"max":[1,1,1],"min":[-1,-1,-1],"type":"VEC3"},{"bufferView":10,"componentType":5126,"count":120,"max":[0.421875,0.28125],"min":[0.003067187499254942,0],"type":"VEC2"},{"bufferView":11,"componentType":5123,"count":144,"max":[119],"min":[0],"type":"SCALAR"},{"bufferView":12,"componentType":5126,"count":120,"max":[0,0.25,-2.7755575615628914e-17],"min":[0,0.25,-2.7755575615628914e-17],"type":"VEC3"},{"bufferView":13,"componentType":5126,"count":120,"max":[1,0,0],"min":[1,0,0],"type":"VEC3"},{"bufferView":14,"componentType":5126,"count":120,"max":[0.00004999999873689376,0.000050008296966552734],"min":[0,0],"type":"VEC2"},{"bufferView":15,"componentType":5123,"count":144,"max":[119],"min":[0],"type":"SCALAR"},{"bufferView":16,"componentType":5126,"count":120,"max":[0.0625,0.375,0.0625],"min":[-0.0625,0.125,-0.0625],"type":"VEC3"},{"bufferView":17,"componentType":5126,"count":120,"max":[1,1,1],"min":[-1,-1,-1],"type":"VEC3"},{"bufferView":18,"componentType":5126,"count":120,"max":[0.5,0.515625],"min":[0.04994218796491623,0],"type":"VEC2"},{"bufferView":19,"componentType":5123,"count":144,"max":[119],"min":[0],"type":"SCALAR"},{"bufferView":20,"componentType":5126,"count":120,"max":[0.0625,0.375,0.0625],"min":[-0.0625,0.125,-0.0625],"type":"VEC3"},{"bufferView":21,"componentType":5126,"count":120,"max":[1,1,1],"min":[-1,-1,-1],"type":"VEC3"},{"bufferView":22,"componentType":5126,"count":120,"max":[0.515625,0.515625],"min":[0.3624421954154968,0],"type":"VEC2"},{"bufferView":23,"componentType":5123,"count":144,"max":[119],"min":[0],"type":"SCALAR"},{"bufferView":24,"componentType":5126,"count":120,"max":[0.375,0.5,0.3125],"min":[-0.375,0,-0.3125],"type":"VEC3"},{"bufferView":25,"componentType":5126,"count":120,"max":[1,1,1],"min":[-1,-1,-1],"type":"VEC3"},{"bufferView":26,"componentType":5126,"count":120,"max":[0.4908234477043152,0.4375],"min":[0.0008156250114552677,0],"type":"VEC2"},{"bufferView":27,"componentType":5123,"count":144,"max":[119],"min":[0],"type":"SCALAR"}],"materials":[{"pbrMetallicRoughness":{"metallicFactor":0,"roughnessFactor":1,"baseColorTexture":{"index":0}},"alphaMode":"MASK","alphaCutoff":0.05,"doubleSided":true}],"textures":[{"sampler":0,"source":0,"name":"texture"}],"samplers":[{"magFilter":9728,"minFilter":9728,"wrapS":33071,"wrapT":33071}],"images":[{"mimeType":"image/png","uri":"data:image/png;base64,"}],"meshes":[{"primitives":[{"mode":4,"attributes":{"POSITION":0,"NORMAL":1,"TEXCOORD_0":2},"indices":3,"material":0}]},{"primitives":[{"mode":4,"attributes":{"POSITION":4,"NORMAL":5,"TEXCOORD_0":6},"indices":7,"material":0}]},{"primitives":[{"mode":4,"attributes":{"POSITION":8,"NORMAL":9,"TEXCOORD_0":10},"indices":11,"material":0}]},{"primitives":[{"mode":4,"attributes":{"POSITION":12,"NORMAL":13,"TEXCOORD_0":14},"indices":15,"material":0}]},{"primitives":[{"mode":4,"attributes":{"POSITION":16,"NORMAL":17,"TEXCOORD_0":18},"indices":19,"material":0}]},{"primitives":[{"mode":4,"attributes":{"POSITION":20,"NORMAL":21,"TEXCOORD_0":22},"indices":23,"material":0}]},{"primitives":[{"mode":4,"attributes":{"POSITION":24,"NORMAL":25,"TEXCOORD_0":26},"indices":27,"material":0}]}]}